<?xml version="1.0" encoding="UTF-8" standalone="no"?>
<!DOCTYPE svg PUBLIC "-//W3C//DTD SVG 1.1//EN"
 "http://www.w3.org/Graphics/SVG/1.1/DTD/svg11.dtd">
<!-- Generated by graphviz version 2.40.1 (20161225.0304)
 -->
<!-- Title: G Pages: 1 -->
<svg width="1320pt" height="260pt"
 viewBox="0.00 0.00 1320.00 260.00" xmlns="http://www.w3.org/2000/svg" xmlns:xlink="http://www.w3.org/1999/xlink">
<g id="graph0" class="graph" transform="scale(1 1) rotate(0) translate(4 256)">
<title>G</title>
<polygon fill="#ffffff" stroke="transparent" points="-4,4 -4,-256 1316,-256 1316,4 -4,4"/>
<!-- p1 -->
<g id="node1" class="node">
<title>p1</title>
<g id="a_node1"><a xlink:href="https://github.com/kantinen/vedtaegter/pull/1" xlink:title="Genskriv 2012&#45;vedtægterne i LaTeX (#1)">
<polygon fill="none" stroke="#000000" points="752,-252 438,-252 438,-216 752,-216 752,-252"/>
<text text-anchor="middle" x="595" y="-230.3" font-family="Times,serif" font-size="14.00" fill="#000000">Genskriv 2012&#45;vedtægterne i LaTeX (#1)</text>
</a>
</g>
</g>
<!-- p6 -->
<g id="node2" class="node">
<title>p6</title>
<g id="a_node2"><a xlink:href="https://github.com/kantinen/vedtaegter/pull/6" xlink:title="Ændr vedtagsdato til den 4. december 2017 (#6)">
<polygon fill="none" stroke="#000000" points="779,-180 411,-180 411,-144 779,-144 779,-180"/>
<text text-anchor="middle" x="595" y="-158.3" font-family="Times,serif" font-size="14.00" fill="#000000">Ændr vedtagsdato til den 4. december 2017 (#6)</text>
</a>
</g>
</g>
<!-- p1&#45;&gt;p6 -->
<g id="edge1" class="edge">
<title>p1&#45;&gt;p6</title>
<path fill="none" stroke="#000000" d="M595,-215.8314C595,-208.131 595,-198.9743 595,-190.4166"/>
<polygon fill="#000000" stroke="#000000" points="598.5001,-190.4132 595,-180.4133 591.5001,-190.4133 598.5001,-190.4132"/>
</g>
<!-- p4 -->
<g id="node3" class="node">
<title>p4</title>
<g id="a_node3"><a xlink:href="https://github.com/kantinen/vedtaegter/pull/4" xlink:title="Ret et par stavefejl (#4)">
<polygon fill="none" stroke="#000000" points="190,-108 0,-108 0,-72 190,-72 190,-108"/>
<text text-anchor="middle" x="95" y="-86.3" font-family="Times,serif" font-size="14.00" fill="#000000">Ret et par stavefejl (#4)</text>
</a>
</g>
</g>
<!-- p6&#45;&gt;p4 -->
<g id="edge2" class="edge">
<title>p6&#45;&gt;p4</title>
<path fill="none" stroke="#000000" d="M453.6995,-143.9819C380.7868,-134.3806 290.1617,-121.9789 200.2949,-108.1745"/>
<polygon fill="#000000" stroke="#000000" points="200.6091,-104.6817 190.1924,-106.6162 199.542,-111.5999 200.6091,-104.6817"/>
</g>
<!-- p2 -->
<g id="node4" class="node">
<title>p2</title>
<g id="a_node4"><a xlink:href="https://github.com/kantinen/vedtaegter/pull/2" xlink:title="Brug A4 formattet og standard LaTeX margin (#2)">
<polygon fill="none" stroke="#000000" points="588,-108 208,-108 208,-72 588,-72 588,-108"/>
<text text-anchor="middle" x="398" y="-86.3" font-family="Times,serif" font-size="14.00" fill="#000000">Brug A4 formattet og standard LaTeX margin (#2)</text>
</a>
</g>
</g>
<!-- p6&#45;&gt;p2 -->
<g id="edge3" class="edge">
<title>p6&#45;&gt;p2</title>
<path fill="none" stroke="#000000" d="M545.5429,-143.9243C518.7289,-134.1243 485.4051,-121.945 457.2153,-111.6422"/>
<polygon fill="#000000" stroke="#000000" points="458.0713,-108.2286 447.4775,-108.0831 455.6684,-114.8033 458.0713,-108.2286"/>
</g>
<!-- p7 -->
<g id="node6" class="node">
<title>p7</title>
<g id="a_node6"><a xlink:href="https://github.com/kantinen/vedtaegter/pull/7" xlink:title="2017 Tiløjelser omkring Vedtægtsændringer (#7)">
<polygon fill="none" stroke="#000000" points="979.5,-108 606.5,-108 606.5,-72 979.5,-72 979.5,-108"/>
<text text-anchor="middle" x="793" y="-86.3" font-family="Times,serif" font-size="14.00" fill="#000000">2017 Tiløjelser omkring Vedtægtsændringer (#7)</text>
</a>
</g>
</g>
<!-- p6&#45;&gt;p7 -->
<g id="edge5" class="edge">
<title>p6&#45;&gt;p7</title>
<path fill="none" stroke="#000000" d="M644.7082,-143.9243C671.7759,-134.0815 705.4439,-121.8386 733.8549,-111.5073"/>
<polygon fill="#000000" stroke="#000000" points="735.0695,-114.7899 743.2714,-108.0831 732.6773,-108.2114 735.0695,-114.7899"/>
</g>
<!-- p8 -->
<g id="node7" class="node">
<title>p8</title>
<g id="a_node7"><a xlink:href="https://github.com/kantinen/vedtaegter/pull/8" xlink:title="2017 Tiløjelser omkring Bestyrelsen (#8)">
<polygon fill="none" stroke="#000000" points="1312,-108 998,-108 998,-72 1312,-72 1312,-108"/>
<text text-anchor="middle" x="1155" y="-86.3" font-family="Times,serif" font-size="14.00" fill="#000000">2017 Tiløjelser omkring Bestyrelsen (#8)</text>
</a>
</g>
</g>
<!-- p6&#45;&gt;p8 -->
<g id="edge6" class="edge">
<title>p6&#45;&gt;p8</title>
<path fill="none" stroke="#000000" d="M735.2278,-143.9707C817.2608,-133.4236 920.8215,-120.1087 1004.5538,-109.3431"/>
<polygon fill="#000000" stroke="#000000" points="1005.192,-112.7899 1014.664,-108.0432 1004.2993,-105.8471 1005.192,-112.7899"/>
</g>
<!-- p3 -->
<g id="node5" class="node">
<title>p3</title>
<g id="a_node5"><a xlink:href="https://github.com/kantinen/vedtaegter/pull/3" xlink:title="Angiv hvad det er for et dokument i hovedet, og samlet sideantal i foden (#3)">
<polygon fill="none" stroke="#000000" points="684,-36 112,-36 112,0 684,0 684,-36"/>
<text text-anchor="middle" x="398" y="-14.3" font-family="Times,serif" font-size="14.00" fill="#000000">Angiv hvad det er for et dokument i hovedet, og samlet sideantal i foden (#3)</text>
</a>
</g>
</g>
<!-- p2&#45;&gt;p3 -->
<g id="edge4" class="edge">
<title>p2&#45;&gt;p3</title>
<path fill="none" stroke="#000000" d="M398,-71.8314C398,-64.131 398,-54.9743 398,-46.4166"/>
<polygon fill="#000000" stroke="#000000" points="401.5001,-46.4132 398,-36.4133 394.5001,-46.4133 401.5001,-46.4132"/>
</g>
</g>
</svg>
